<svg xmlns="http://www.w3.org/2000/svg" viewBox="0 0 160 380" fill="none" stroke-linecap="round" stroke-linejoin="round"><line x1="52" y1="88" x2="108" y2="88" stroke="#d8cfc2" stroke-width=".6" stroke-dasharray="2 3"/><line x1="62" y1="112" x2="98" y2="112" stroke="#d8cfc2" stroke-width=".6" stroke-dasharray="2 3"/><line x1="50" y1="152" x2="110" y2="152" stroke="#d8cfc2" stroke-width=".6" stroke-dasharray="2 3"/><line x1="80" y1="44" x2="80" y2="168" stroke="#d8cfc2" stroke-width=".6" stroke-dasharray="2 3"/><ellipse cx="80" cy="20" rx="13.5" ry="18.5" stroke="#b9ae9f" stroke-width="1"/><path d="M72.0,52.0 C69.0,55.2 59.3,53.7 55.0,57.0 C50.7,60.3 49.2,66.5 46.0,72.0 C42.8,77.5 38.5,85.3 36.0,90.0 C33.5,94.7 29.7,96.5 31.0,100.0 C32.3,103.5 40.0,108.2 44.0,111.0 C48.0,113.8 52.0,115.3 55.0,117.0 C58.0,118.7 61.2,121.5 62.0,121.0 C62.8,120.5 61.5,115.7 60.0,114.0 C58.5,112.3 56.0,112.7 53.0,111.0 C50.0,109.3 44.2,106.2 42.0,104.0 C39.8,101.8 38.8,101.2 40.0,98.0 C41.2,94.8 46.2,88.0 49.0,85.0 C51.8,82.0 55.7,79.2 57.0,80.0 C58.3,80.8 55.8,84.7 57.0,90.0 C58.2,95.3 63.8,104.7 64.0,112.0 C64.2,119.3 59.7,127.3 58.0,134.0 C56.3,140.7 53.8,141.0 54.0,152.0 C54.2,163.0 57.5,182.8 59.0,200.0 C60.5,217.2 62.2,240.8 63.0,255.0 C63.8,269.2 62.8,270.5 64.0,285.0 C65.2,299.5 69.2,329.8 70.0,342.0 C70.8,354.2 69.7,352.7 69.0,358.0 C68.3,363.3 65.3,371.7 66.0,374.0 C66.7,376.3 71.8,377.3 73.0,372.0 C74.2,366.7 73.2,354.0 73.0,342.0 C72.8,330.0 72.2,314.0 72.0,300.0 C71.8,286.0 71.7,273.8 72.0,258.0 C72.3,242.2 72.7,219.7 74.0,205.0 C75.3,190.3 78.0,170.0 80.0,170.0 C82.0,170.0 84.7,190.3 86.0,205.0 C87.3,219.7 87.7,242.2 88.0,258.0 C88.3,273.8 88.2,286.0 88.0,300.0 C87.8,314.0 87.2,330.0 87.0,342.0 C86.8,354.0 85.8,366.7 87.0,372.0 C88.2,377.3 93.3,376.3 94.0,374.0 C94.7,371.7 91.7,363.3 91.0,358.0 C90.3,352.7 89.2,354.2 90.0,342.0 C90.8,329.8 94.8,299.5 96.0,285.0 C97.2,270.5 96.2,269.2 97.0,255.0 C97.8,240.8 99.5,217.2 101.0,200.0 C102.5,182.8 105.8,163.0 106.0,152.0 C106.2,141.0 103.7,140.7 102.0,134.0 C100.3,127.3 95.8,119.3 96.0,112.0 C96.2,104.7 101.8,95.7 103.0,90.0 C104.2,84.3 102.0,73.3 103.0,78.0 C104.0,82.7 107.5,104.7 109.0,118.0 C110.5,131.3 111.3,148.3 112.0,158.0 C112.7,167.7 112.0,172.0 113.0,176.0 C114.0,180.0 116.7,182.7 118.0,182.0 C119.3,181.3 120.8,176.0 121.0,172.0 C121.2,168.0 119.8,167.5 119.0,158.0 C118.2,148.5 117.0,129.0 116.0,115.0 C115.0,101.0 114.8,83.7 113.0,74.0 C111.2,64.3 109.2,60.7 105.0,57.0 C100.8,53.3 91.0,55.2 88.0,52.0 C85.0,48.8 89.5,40.3 87.0,38.0 C84.5,35.7 75.5,35.7 73.0,38.0 C70.5,40.3 75.0,48.8 72.0,52.0 Z" stroke="#b9ae9f" stroke-width="1"/></svg>